P3
# Created by GIMP version 2.10.30 PNM plug-in
5 5
4
0
0
0
0
0
0
2
1
1
0
4
0
0
0
0
0
0
0
0
2
0
3
2
1
0
2
0
0
0
0
2
1
1
3
2
1
1
1
0
2
1
1
0
0
0
0
4
0
0
2
0
2
1
1
0
4
0
0
0
0
0
0
0
0
0
0
0
0
0
0
0
0
0
0
0
